<svg xmlns="http://www.w3.org/2000/svg" viewBox="0 0 1200 780" font-family="ui-sans-serif, system-ui, -apple-system, 'Segoe UI', Roboto, sans-serif">
  <defs>
    <linearGradient id="brand" x1="0" y1="0" x2="1" y2="1">
      <stop offset="0" stop-color="#38bdf8"/>
      <stop offset="1" stop-color="#22d3ee"/>
    </linearGradient>
    <linearGradient id="sdkfill" x1="0" y1="0" x2="0" y2="1">
      <stop offset="0" stop-color="#0e1b24"/>
      <stop offset="1" stop-color="#0b1016"/>
    </linearGradient>
    <filter id="glow" x="-40%" y="-40%" width="180%" height="180%">
      <feGaussianBlur stdDeviation="7" result="b"/>
      <feMerge><feMergeNode in="b"/><feMergeNode in="SourceGraphic"/></feMerge>
    </filter>
    <marker id="arr" viewBox="0 0 10 10" refX="9" refY="5" markerWidth="7" markerHeight="7" orient="auto-start-reverse">
      <path d="M0,0 L10,5 L0,10 z" fill="#52525b"/>
    </marker>
    <marker id="arrS" viewBox="0 0 10 10" refX="9" refY="5" markerWidth="7" markerHeight="7" orient="auto-start-reverse">
      <path d="M0,0 L10,5 L0,10 z" fill="#38bdf8"/>
    </marker>
    <style>
      .box   { fill:#121218; stroke:rgba(255,255,255,0.09); stroke-width:1.5; }
      .title { fill:#e4e4e7; font-weight:700; }
      .sub   { fill:#9ca3af; }
      .li    { fill:#a1a1aa; }
      .elbl  { fill:#cbd5e1; font-weight:600; }
      .num   { fill:#0b0b10; font-weight:800; }
      .flow  { stroke:#38bdf8; stroke-width:2; fill:none; }
      .mut   { stroke:#3f3f46; stroke-width:1.8; fill:none; }
    </style>
  </defs>

  <!-- panel background (keeps light text readable on any host theme) -->
  <rect x="1" y="1" width="1198" height="778" rx="22" fill="#0b0b10" stroke="rgba(255,255,255,0.08)" stroke-width="1.5"/>

  <!-- ============ CONNECTORS (under boxes) ============ -->
  <!-- Agents -> SDK -->
  <path class="mut" d="M600,128 L600,196" marker-end="url(#arr)"/>
  <text class="elbl" x="616" y="166" font-size="13">build context</text>

  <!-- memory loop: SDK -> back to Agents -->
  <path d="M452,250 C300,212 300,86 452,82" fill="none" stroke="#38bdf8" stroke-width="1.8"
        stroke-dasharray="2 7" stroke-linecap="round" opacity="0.85" marker-end="url(#arrS)">
    <animate attributeName="stroke-dashoffset" from="36" to="0" dur="1.4s" repeatCount="indefinite"/>
  </path>
  <text class="elbl" x="250" y="160" font-size="12.5" fill="#7dd3fc" text-anchor="middle">memory loop</text>
  <text class="li" x="250" y="178" font-size="11" text-anchor="middle">read own history</text>

  <!-- SDK -> Walrus (upload) -->
  <path class="flow" d="M470,306 C404,350 360,360 322,396" stroke-dasharray="7 7" marker-end="url(#arrS)">
    <animate attributeName="stroke-dashoffset" from="28" to="0" dur="0.9s" repeatCount="indefinite"/>
  </path>
  <!-- SDK -> Sui (anchor) -->
  <path class="flow" d="M730,306 C796,350 840,360 878,396" stroke-dasharray="7 7" marker-end="url(#arrS)">
    <animate attributeName="stroke-dashoffset" from="28" to="0" dur="0.9s" repeatCount="indefinite"/>
  </path>

  <!-- Walrus -> Verdict (fetch) -->
  <path class="mut" d="M330,532 C400,584 470,602 512,620" marker-end="url(#arr)"/>
  <text class="elbl" x="372" y="588" font-size="12">fetch blob</text>
  <!-- Sui -> Verdict (read) -->
  <path class="mut" d="M870,532 C800,584 730,602 688,620" marker-end="url(#arr)"/>
  <text class="elbl" x="770" y="588" font-size="12" text-anchor="end">read hash</text>

  <!-- ============ NODES ============ -->
  <!-- Agents -->
  <g>
    <rect class="box" x="460" y="44" width="280" height="84" rx="14"/>
    <text class="title" x="600" y="80" font-size="17" text-anchor="middle">AI Agents</text>
    <text class="sub" x="600" y="104" font-size="12.5" text-anchor="middle">write decisions · read their own memory</text>
  </g>

  <!-- SDK (the bridge) -->
  <g filter="url(#glow)">
    <rect x="440" y="200" width="320" height="108" rx="16" fill="url(#sdkfill)" stroke="url(#brand)" stroke-width="2"/>
  </g>
  <text class="title" x="600" y="236" font-size="17" text-anchor="middle">suitrace-sdk</text>
  <text x="600" y="260" font-size="12.5" fill="#7dd3fc" text-anchor="middle" font-family="ui-monospace, monospace">trace.ts · walrus.ts · graph.ts</text>
  <text class="sub" x="600" y="284" font-size="12" text-anchor="middle">the only bridge between the two stores</text>

  <!-- Walrus -->
  <g>
    <rect class="box" x="120" y="400" width="360" height="132" rx="16"/>
    <rect x="120" y="400" width="5" height="132" rx="2.5" fill="#22d3ee"/>
    <text class="title" x="148" y="436" font-size="16">Walrus — content</text>
    <text class="li" x="148" y="437" font-size="0"></text>
    <text x="455" y="430" font-size="11.5" fill="#67e8f9" text-anchor="end">off-chain</text>
    <text class="li" x="148" y="468" font-size="12.5">• context blob, 5–50 KB</text>
    <text class="li" x="148" y="490" font-size="12.5">• epoch-certified · content-addressed</text>
    <text class="li" x="148" y="512" font-size="12.5">• permanent public URL</text>
  </g>

  <!-- Sui -->
  <g>
    <rect class="box" x="720" y="400" width="360" height="132" rx="16"/>
    <rect x="1075" y="400" width="5" height="132" rx="2.5" fill="#818cf8"/>
    <text class="title" x="748" y="436" font-size="16">Sui — fingerprint</text>
    <text x="1052" y="430" font-size="11.5" fill="#a5b4fc" text-anchor="end">on-chain</text>
    <text class="li" x="748" y="468" font-size="12.5">• content_hash + prev_hash chain</text>
    <text class="li" x="748" y="490" font-size="12.5">• AgentRegistry (shared object)</text>
    <text class="li" x="748" y="512" font-size="12.5">• identity = tx sender</text>
  </g>

  <!-- Verdict -->
  <g>
    <rect class="box" x="420" y="624" width="360" height="118" rx="16"/>
    <text class="title" x="600" y="660" font-size="16" text-anchor="middle">Anyone verifies — trustlessly</text>
    <text class="sub" x="600" y="682" font-size="12" text-anchor="middle">re-fetch blob · re-hash · compare to chain</text>
    <g font-size="11.5" font-weight="700" text-anchor="middle">
      <g transform="translate(497,712)">
        <rect x="-47" y="-13" width="94" height="24" rx="12" fill="rgba(16,185,129,0.12)" stroke="#10b981" stroke-width="1"/>
        <text x="0" y="4" fill="#34d399">✓ VERIFIED</text>
      </g>
      <g transform="translate(600,712)">
        <rect x="-46" y="-13" width="92" height="24" rx="12" fill="rgba(239,68,68,0.12)" stroke="#ef4444" stroke-width="1"/>
        <text x="0" y="4" fill="#f87171">✗ TAMPERED</text>
      </g>
      <g transform="translate(706,712)">
        <rect x="-50" y="-13" width="100" height="24" rx="12" fill="rgba(255,255,255,0.05)" stroke="#52525b" stroke-width="1"/>
        <text x="0" y="4" fill="#a1a1aa">○ UNAVAILABLE</text>
      </g>
    </g>
  </g>

  <!-- step numbers on the write arrows -->
  <g>
    <circle cx="398" cy="352" r="11" fill="url(#brand)"/>
    <text class="num" x="398" y="356" font-size="12" text-anchor="middle">1</text>
    <text class="elbl" x="384" y="380" font-size="11.5" text-anchor="end" fill="#7dd3fc">upload blob</text>

    <circle cx="802" cy="352" r="11" fill="url(#brand)"/>
    <text class="num" x="802" y="356" font-size="12" text-anchor="middle">2</text>
    <text class="elbl" x="818" y="380" font-size="11.5" fill="#7dd3fc">anchor hash (PTB)</text>
  </g>

  <!-- atomicity note -->
  <text x="600" y="360" font-size="11" fill="#a16207" text-anchor="middle" font-style="italic">write = 2 steps, sequential not atomic</text>
</svg>
